<svg width="1100" height="620" viewBox="0 0 1100 620" fill="none" xmlns="http://www.w3.org/2000/svg">
  <rect width="1100" height="620" rx="24" fill="#F8FAFC"/>
  <rect x="36" y="32" width="1028" height="556" rx="20" fill="#FFFFFF" stroke="#CBD5E1"/>
  <text x="70" y="86" fill="#0F172A" font-family="Inter, Arial" font-size="28" font-weight="800">Gaming User Behavior Dashboard</text>
  <text x="70" y="118" fill="#64748B" font-family="Inter, Arial" font-size="15">Synthetic view of user segmentation, spending motivation, and retention signals.</text>
  <rect x="70" y="154" width="300" height="350" rx="16" fill="#F8FAFC" stroke="#E2E8F0"/>
  <text x="96" y="196" fill="#0F172A" font-family="Inter, Arial" font-size="18" font-weight="800">Segment Mix</text>
  <circle cx="220" cy="330" r="94" fill="#DCFCE7"/>
  <path d="M220 330L220 236A94 94 0 0 1 306 368Z" fill="#22C55E"/>
  <path d="M220 330L306 368A94 94 0 0 1 150 396Z" fill="#14B8A6"/>
  <path d="M220 330L150 396A94 94 0 0 1 220 236Z" fill="#93C5FD"/>
  <text x="96" y="470" fill="#334155" font-family="Inter, Arial" font-size="14">Competitive core · cosmetic spender · event returner</text>
  <rect x="410" y="154" width="614" height="350" rx="16" fill="#F8FAFC" stroke="#E2E8F0"/>
  <text x="436" y="196" fill="#0F172A" font-family="Inter, Arial" font-size="18" font-weight="800">Retention and Spend Signals</text>
  <line x1="468" y1="430" x2="948" y2="430" stroke="#CBD5E1"/>
  <line x1="468" y1="250" x2="468" y2="430" stroke="#CBD5E1"/>
  <path d="M468 392C548 350 610 362 678 300C748 236 820 278 948 218" stroke="#0F766E" stroke-width="4" fill="none" stroke-linecap="round"/>
  <rect x="510" y="344" width="54" height="86" fill="#BBF7D0"/>
  <rect x="630" y="314" width="54" height="116" fill="#86EFAC"/>
  <rect x="750" y="284" width="54" height="146" fill="#4ADE80"/>
  <rect x="870" y="250" width="54" height="180" fill="#22C55E"/>
  <text x="436" y="470" fill="#334155" font-family="Inter, Arial" font-size="14">Interpretation: identity-based cosmetic spending and event participation both support reactivation.</text>
</svg>
